<?xml version="1.0" encoding="UTF-8" standalone="no"?>
<svg
   xmlns:dc="http://purl.org/dc/elements/1.1/"
   xmlns:cc="http://creativecommons.org/ns#"
   xmlns:rdf="http://www.w3.org/1999/02/22-rdf-syntax-ns#"
   xmlns:svg="http://www.w3.org/2000/svg"
   xmlns="http://www.w3.org/2000/svg"
   xmlns:xlink="http://www.w3.org/1999/xlink"
   xmlns:sodipodi="http://sodipodi.sourceforge.net/DTD/sodipodi-0.dtd"
   xmlns:inkscape="http://www.inkscape.org/namespaces/inkscape"
   version="1.1"
   width="400"
   height="400"
   id="svg3152"
   inkscape:version="0.48.3.1 r9886"
   sodipodi:docname="icon.svg"
   inkscape:export-filename="/home/paul/Projects/mail_cleaner/icon48.png"
   inkscape:export-xdpi="10.8"
   inkscape:export-ydpi="10.8">
  <metadata
     id="metadata3183">
    <rdf:RDF>
      <cc:Work
         rdf:about="">
        <dc:format>image/svg+xml</dc:format>
        <dc:type
           rdf:resource="http://purl.org/dc/dcmitype/StillImage" />
        <dc:title></dc:title>
      </cc:Work>
    </rdf:RDF>
  </metadata>
  <sodipodi:namedview
     pagecolor="#ffffff"
     bordercolor="#666666"
     borderopacity="1"
     objecttolerance="10"
     gridtolerance="10"
     guidetolerance="10"
     inkscape:pageopacity="0"
     inkscape:pageshadow="2"
     inkscape:window-width="1020"
     inkscape:window-height="952"
     id="namedview3181"
     showgrid="false"
     inkscape:zoom="0.2085965"
     inkscape:cx="365.16316"
     inkscape:cy="200"
     inkscape:window-x="343"
     inkscape:window-y="37"
     inkscape:window-maximized="0"
     inkscape:current-layer="svg3152" />
  <defs
     id="defs3154">
    <linearGradient
       id="linearGradient3134">
      <stop
         stop-color="#ffa1a1"
         offset="0"
         id="stop3157" />
      <stop
         stop-color="#b41e1e"
         offset="1"
         id="stop3159" />
    </linearGradient>
    <linearGradient
       x1="29.753853"
       y1="-13.269632"
       x2="202.58235"
       y2="183.58783"
       id="linearGradient3140"
       xlink:href="#linearGradient3134"
       gradientUnits="userSpaceOnUse"
       gradientTransform="matrix(1.2084389,0,0,1.2084418,89.669909,106.93817)" />
    <linearGradient
       x1="29.753853"
       y1="-13.269632"
       x2="202.58235"
       y2="183.58783"
       id="linearGradient3148"
       xlink:href="#linearGradient3134"
       gradientUnits="userSpaceOnUse"
       gradientTransform="matrix(1.2084389,0,0,1.2084418,89.669909,106.93817)" />
    <filter
       id="filter19487"
       color-interpolation-filters="sRGB">
      <feGaussianBlur
         id="feGaussianBlur19489"
         stdDeviation="2.7084865" />
    </filter>
    <filter
       id="filter3172"
       color-interpolation-filters="sRGB">
      <feGaussianBlur
         id="feGaussianBlur3174"
         stdDeviation="5.0924795" />
    </filter>
    <linearGradient
       x1="29.753853"
       y1="-13.269632"
       x2="202.58235"
       y2="183.58783"
       id="linearGradient2184"
       xlink:href="#linearGradient3134"
       gradientUnits="userSpaceOnUse"
       gradientTransform="matrix(1.20844,0,0,1.20844,89.6696,106.939)" />
    <linearGradient
       x1="29.753853"
       y1="-13.269632"
       x2="202.58235"
       y2="183.58783"
       id="linearGradient36"
       xlink:href="#linearGradient3134"
       gradientUnits="userSpaceOnUse"
       gradientTransform="matrix(1.20844,0,0,1.20844,89.6696,106.939)" />
    <linearGradient
       inkscape:collect="always"
       xlink:href="#linearGradient3134"
       id="linearGradient3185"
       gradientUnits="userSpaceOnUse"
       gradientTransform="matrix(1.2084389,0,0,1.2084418,169.66991,106.93817)"
       x1="29.753853"
       y1="-13.269632"
       x2="202.58235"
       y2="183.58783" />
    <linearGradient
       inkscape:collect="always"
       xlink:href="#linearGradient3134"
       id="linearGradient3187"
       gradientUnits="userSpaceOnUse"
       gradientTransform="matrix(1.2084389,0,0,1.2084418,169.66991,106.93817)"
       x1="29.753853"
       y1="-13.269632"
       x2="202.58235"
       y2="183.58783" />
  </defs>
  <path
     id="path4051"
     d="m 199.8125,32.1875 c -4.57838,0.23628 -8.72407,2.788384 -11.03125,6.75 L 5.21875,355.65625 c -2.43279,4.19868 -2.42029,9.35659 0,13.5625 2.42029,4.2059 6.89744,6.80619 11.75,6.8125 l 366,0.5625 c 4.85454,0.0146 9.37486,-2.55183 11.8125,-6.75 2.43764,-4.19815 2.4504,-9.3849 0.0312,-13.59375 L 212.28125,38.96875 c -2.55408,-4.421528 -7.36956,-7.048869 -12.46875,-6.78125 z"
     style="fill:#ffffff;fill-opacity:1;stroke:none"
     inkscape:connector-curvature="0" />
  <g
     transform="matrix(1.259197,0,0,1.259197,-48.675925,-47.026421)"
     id="g4056">
    <path
       style="fill:#000000;stroke:#000000;stroke-width:0.55056769px;stroke-linecap:butt;stroke-linejoin:miter;stroke-opacity:1"
       d="m 131.77012,219.47588 19.26987,-11.01135 16.51703,11.01135 0,57.80961 8.25852,5.50568 -16.51703,11.01135 -22.57327,-14.31476 6.05624,-4.40455 0,-46.79825 z"
       id="path4058"
       inkscape:connector-curvature="0"
       sodipodi:nodetypes="cccccccccc" />
    <path
       sodipodi:nodetypes="ccccccccccc"
       inkscape:connector-curvature="0"
       id="path4060"
       d="m 167.00646,219.47588 28.07895,-13.21363 16.51703,11.01136 0,57.8096 10.46079,7.70796 -16.51703,11.01135 -24.77555,-16.51703 6.05624,-4.40454 0,-44.59599 c -10.08466,-4.38242 -15.85909,-7.93059 -19.82602,-6.89048 z"
       style="fill:#000000;stroke:#000000;stroke-width:0.55056769px;stroke-linecap:butt;stroke-linejoin:miter;stroke-opacity:1" />
    <path
       style="fill:#000000;stroke:#000000;stroke-width:0.55056769px;stroke-linecap:butt;stroke-linejoin:miter;stroke-opacity:1"
       d="m 211.05188,218.37474 28.07895,-12.11249 16.51703,11.01136 0,60.01188 c 0,2.75284 2.47476,4.11528 5.50568,5.50568 l -16.54498,11.01135 c -5.50568,-2.75284 -13.73625,-5.50567 -13.73625,-13.76419 0,-17.25112 0,-35.60338 0,-52.8545 -9.32098,-4.55476 -14.05368,-8.55336 -19.62061,-6.9904 z"
       id="path4062"
       inkscape:connector-curvature="0"
       sodipodi:nodetypes="cccccccccc" />
    <rect
       style="fill:#000000;fill-opacity:1;stroke:#000000;stroke-width:0.55056769"
       id="rect4064"
       width="1.0843664"
       height="64.955811"
       x="170.86043"
       y="217.83536" />
    <rect
       y="217.83536"
       x="214.90585"
       height="64.955811"
       width="1.0843664"
       id="rect4066"
       style="fill:#000000;fill-opacity:1;stroke:#000000;stroke-width:0.55056769" />
    <path
       style="fill:#000000;stroke:#000000;stroke-width:0.55056769px;stroke-linecap:butt;stroke-linejoin:miter;stroke-opacity:1"
       d="m 171.96157,258.01562 9.91022,-16.51703 46.79825,0 -9.91022,16.51703 z"
       id="path4068"
       inkscape:connector-curvature="0"
       sodipodi:nodetypes="ccccc" />
  </g>
  <path
     style="fill:#c91010;fill-opacity:1;stroke:none"
     d="m 200.75,32.15625 c -0.316,-0.0056 -0.6188,0.01452 -0.9375,0.03125 -4.57838,0.23628 -8.72407,2.788384 -11.03125,6.75 L 5.21875,355.65625 c -2.43279,4.19868 -2.42029,9.35659 0,13.5625 2.42029,4.2059 6.89744,6.80619 11.75,6.8125 l 366,0.5625 c 4.85454,0.0146 9.37486,-2.55183 11.8125,-6.75 2.43764,-4.19815 2.4504,-9.3849 0.0312,-13.59375 L 212.28125,38.96875 C 209.8868,34.823567 205.49,32.240579 200.75,32.15625 z m -0.875,85.65625 c 3.07837,-0.16156 5.98935,1.42447 7.53125,4.09375 l 110.1875,191.5625 c 1.4604,2.54089 1.4716,5.65309 0,8.1875 -1.4716,2.53445 -4.19433,4.10275 -7.125,4.09375 L 89.5,325.40625 c -2.92949,-0.004 -5.63262,-1.5859 -7.09375,-4.125 -1.46112,-2.5391 -1.46868,-5.65277 0,-8.1875 L 193.21875,121.875 c 1.39285,-2.39163 3.89227,-3.91985 6.65625,-4.0625 z"
     id="path4021"
     inkscape:connector-curvature="0" />
  <path
     style="fill:none;stroke:#000000;stroke-width:6.78973961"
     d="m 199.8125,32.1875 c -4.57838,0.23628 -8.72407,2.788384 -11.03125,6.75 L 5.21875,355.65625 c -2.43279,4.19868 -2.42029,9.35659 0,13.5625 2.42029,4.2059 6.89744,6.80619 11.75,6.8125 l 366,0.5625 c 4.85454,0.0146 9.37486,-2.55183 11.8125,-6.75 2.43764,-4.19815 2.4504,-9.3849 0.0312,-13.59375 L 212.28125,38.96875 c -2.55408,-4.421528 -7.36956,-7.048869 -12.46875,-6.78125 z"
     id="path4014"
     inkscape:connector-curvature="0" />
</svg>
